<svg xmlns="http://www.w3.org/2000/svg" viewBox="0 0 760 322" width="760" height="322" font-family="ui-monospace,SFMono-Regular,Menlo,monospace" role="img" aria-label="REE Corporation momentum vs baseline">
<rect width="760" height="322" fill="#FAF9F5"/>
<line x1="58" y1="26.0" x2="628" y2="26.0" stroke="#E4E2DC" stroke-width="1"/>
<text x="50" y="29.5" font-size="9" fill="#9A9A93" text-anchor="end">+1</text>
<line x1="58" y1="84.5" x2="628" y2="84.5" stroke="#E4E2DC" stroke-width="1"/>
<text x="50" y="88.0" font-size="9" fill="#9A9A93" text-anchor="end">+0.5</text>
<line x1="58" y1="143.0" x2="628" y2="143.0" stroke="#E4E2DC" stroke-width="1"/>
<text x="50" y="146.5" font-size="9" fill="#9A9A93" text-anchor="end">0</text>
<line x1="58" y1="201.5" x2="628" y2="201.5" stroke="#E4E2DC" stroke-width="1"/>
<text x="50" y="205.0" font-size="9" fill="#9A9A93" text-anchor="end">-0.5</text>
<line x1="58" y1="260.0" x2="628" y2="260.0" stroke="#E4E2DC" stroke-width="1"/>
<text x="50" y="263.5" font-size="9" fill="#9A9A93" text-anchor="end">-1</text>
<rect x="58" y="26" width="563.2" height="234" fill="#3D3D3A" opacity="0.025"/>
<line x1="621.2" y1="26" x2="621.2" y2="260" stroke="#3D3D3A" stroke-width="1.25" stroke-dasharray="4 3"/>
<text x="616.2" y="36" font-size="9" fill="#3D3D3A" text-anchor="end">cutoff 2022-07-31</text>
<line x1="376.7" y1="260" x2="376.7" y2="266" stroke="#9A9A93" stroke-width="1"><title>2021-06-30 · company_pr — Builds out a roughly 1 GW hydro, wind and solar power portfolio</title></line>
<text x="58.0" y="278" font-size="8.5" fill="#9A9A93" text-anchor="start">2020-01-31</text>
<text x="621.2" y="278" font-size="8.5" fill="#9A9A93" text-anchor="end">2022-07-31</text>
<line x1="58" y1="143.0" x2="621.2" y2="143.0" stroke="#9A9A93" stroke-width="2.5"/>
<polyline points="58.0,143.0 75.9,143.0 95.1,143.0 113.6,143.0 132.7,143.0 151.3,143.0 170.4,143.0 189.5,143.0 208.1,143.0 227.2,143.0 245.7,143.0 264.9,143.0 284.0,143.0 301.3,143.0 320.5,143.0 339.0,143.0 358.1,143.0 376.7,143.0 395.8,96.2" fill="none" stroke="#2F7D62" stroke-width="1.5" stroke-dasharray="3 4" opacity="0.45"/>
<text x="217.3" y="136.0" font-size="8" fill="#9A9A93" text-anchor="middle" opacity="0.9">no evidence yet</text>
<polyline points="395.8,96.2 414.9,99.6 433.5,102.7 452.6,105.8 471.1,108.6 490.3,111.4 509.4,114.1 526.7,116.4 545.9,118.8 564.4,120.9 583.5,123.0 602.1,124.8 621.2,126.6" fill="none" stroke="#2F7D62" stroke-width="2.5" stroke-linejoin="round" stroke-linecap="round"/>
<circle cx="395.8" cy="96.2" r="2.53" fill="#2F7D62" opacity="0.38"><title>2021-07-31 · momentum +0.400 · confidence 0.042 · 1 signals</title></circle>
<circle cx="414.9" cy="99.6" r="2.53" fill="#2F7D62" opacity="0.38"><title>2021-08-31 · momentum +0.371 · confidence 0.042 · 1 signals</title></circle>
<circle cx="433.5" cy="102.7" r="2.53" fill="#2F7D62" opacity="0.38"><title>2021-09-30 · momentum +0.345 · confidence 0.042 · 1 signals</title></circle>
<circle cx="452.6" cy="105.8" r="2.53" fill="#2F7D62" opacity="0.38"><title>2021-10-31 · momentum +0.318 · confidence 0.042 · 1 signals</title></circle>
<circle cx="471.1" cy="108.6" r="2.53" fill="#2F7D62" opacity="0.38"><title>2021-11-30 · momentum +0.294 · confidence 0.042 · 1 signals</title></circle>
<circle cx="490.3" cy="111.4" r="2.53" fill="#2F7D62" opacity="0.38"><title>2021-12-31 · momentum +0.270 · confidence 0.042 · 1 signals</title></circle>
<circle cx="509.4" cy="114.1" r="2.53" fill="#2F7D62" opacity="0.38"><title>2022-01-31 · momentum +0.247 · confidence 0.042 · 1 signals</title></circle>
<circle cx="526.7" cy="116.4" r="2.53" fill="#2F7D62" opacity="0.38"><title>2022-02-28 · momentum +0.227 · confidence 0.042 · 1 signals</title></circle>
<circle cx="545.9" cy="118.8" r="2.53" fill="#2F7D62" opacity="0.38"><title>2022-03-31 · momentum +0.207 · confidence 0.042 · 1 signals</title></circle>
<circle cx="564.4" cy="120.9" r="2.53" fill="#2F7D62" opacity="0.38"><title>2022-04-30 · momentum +0.189 · confidence 0.042 · 1 signals</title></circle>
<circle cx="583.5" cy="123.0" r="2.53" fill="#2F7D62" opacity="0.38"><title>2022-05-31 · momentum +0.171 · confidence 0.042 · 1 signals</title></circle>
<circle cx="602.1" cy="124.8" r="2.53" fill="#2F7D62" opacity="0.38"><title>2022-06-30 · momentum +0.155 · confidence 0.042 · 1 signals</title></circle>
<circle cx="621.2" cy="126.6" r="2.53" fill="#2F7D62" opacity="0.38"><title>2022-07-31 · momentum +0.140 · confidence 0.042 · 1 signals</title></circle>
<line x1="628.0" y1="42" x2="628.0" y2="260" stroke="#3D3D3A" stroke-width="1" opacity="0.35"/>
<circle cx="628.0" cy="42" r="4.5" fill="#3D3D3A"><title>2022-08-11 — HSBC arranges a VND900bn (~US$38.5M) green loan for REE's LEED-certified e.town 6 building</title></circle>
<text x="636.0" y="45" font-size="9" fill="#3D3D3A">outcome 2022-08-11</text>
<text x="58" y="16" font-size="11.5" fill="#3D3D3A" font-weight="600">REE Corporation (HOSE:REE)</text>
<text x="58" y="290" font-size="9" fill="#3D3D3A">at cutoff: momentum +0.140 · confidence 0.042 · 1 signals · Future Leaders</text>
<text x="58" y="302" font-size="8" fill="#9A9A93">grey = incumbent baseline, flat: no rating action dated in this window (basis unavailable) · MOCK, not licensed LSEG</text>
<text x="58" y="313" font-size="8" fill="#9A9A93">dashed = no evidence yet, not agreement · the drift back toward 0 between signals is time-decay, not recovery · dot size = confidence</text>
<text x="638" y="137.0" font-size="9" fill="#9A9A93">LSEG baseline</text>
<text x="638" y="129.6" font-size="9" fill="#2F7D62">our momentum</text>
<text x="638" y="256" font-size="8" fill="#9A9A93">ticks = dated evidence</text>
</svg>
